<svg width="1000" height="1000" viewBox="0 0 1000 1000" fill="none" xmlns="http://www.w3.org/2000/svg">
<path d="M296.048 278.769C298.264 278.762 298.264 278.762 300.524 278.753C302.957 278.755 302.957 278.755 305.439 278.757C307.163 278.753 308.887 278.749 310.663 278.745C315.45 278.734 320.238 278.731 325.026 278.73C330.188 278.728 335.35 278.718 340.513 278.708C351.803 278.69 363.093 278.682 374.382 278.676C381.432 278.672 388.481 278.666 395.531 278.66C415.048 278.643 434.566 278.629 454.083 278.625C455.332 278.624 456.581 278.624 457.868 278.624C459.121 278.623 460.373 278.623 461.663 278.623C464.2 278.622 466.738 278.622 469.275 278.621C470.534 278.621 471.792 278.62 473.089 278.62C493.483 278.615 513.877 278.591 534.271 278.559C555.209 278.527 576.147 278.51 597.085 278.508C608.841 278.507 620.597 278.499 632.353 278.474C642.364 278.453 652.374 278.446 662.385 278.458C667.491 278.463 672.597 278.462 677.704 278.442C683.243 278.422 688.782 278.433 694.321 278.447C695.931 278.436 697.54 278.425 699.199 278.414C711.973 278.491 721.499 280.614 730.745 289.861C735.267 297.501 736.371 303.506 736.385 312.293C736.388 313.177 736.391 314.062 736.394 314.973C736.403 317.948 736.403 320.923 736.402 323.898C736.407 326.048 736.412 328.198 736.417 330.348C736.431 336.266 736.436 342.183 736.44 348.101C736.445 354.48 736.458 360.858 736.47 367.237C736.497 382.646 736.511 398.056 736.523 413.465C736.529 420.721 736.536 427.976 736.543 435.232C736.567 459.35 736.586 483.469 736.596 507.587C736.599 513.846 736.602 520.106 736.604 526.365C736.605 527.92 736.606 529.476 736.606 531.079C736.618 556.283 736.652 581.486 736.696 606.69C736.741 632.563 736.766 658.437 736.77 684.31C736.773 698.838 736.785 713.366 736.82 727.894C736.85 740.267 736.861 752.639 736.847 765.011C736.841 771.322 736.844 777.633 736.87 783.945C736.894 789.727 736.893 795.509 736.872 801.291C736.869 803.379 736.874 805.466 736.891 807.553C737.071 832.401 737.071 832.401 728.771 841.794C722.709 847.112 717.68 849.447 709.69 849.463C708.175 849.472 706.66 849.482 705.099 849.492C703.435 849.489 701.77 849.485 700.056 849.482C697.403 849.493 697.403 849.493 694.697 849.504C689.785 849.523 684.873 849.525 679.961 849.525C674.665 849.527 669.368 849.545 664.072 849.56C652.489 849.592 640.906 849.602 629.323 849.609C622.091 849.614 614.859 849.623 607.627 849.632C587.604 849.659 567.581 849.681 547.558 849.685C546.276 849.686 544.995 849.686 543.674 849.686C541.076 849.687 538.478 849.687 535.88 849.688C534.59 849.688 533.301 849.688 531.972 849.688C530.681 849.689 529.389 849.689 528.059 849.689C507.136 849.694 486.213 849.731 465.289 849.782C443.809 849.834 422.328 849.86 400.848 849.861C388.787 849.861 376.726 849.873 364.665 849.913C354.395 849.946 344.125 849.956 333.854 849.935C328.615 849.926 323.376 849.927 318.137 849.958C312.454 849.991 306.773 849.971 301.09 849.947C298.612 849.974 298.612 849.974 296.084 850.001C286.453 849.905 279.836 848.707 272.436 842.288C269.926 839.427 269.926 839.427 268.429 836.747C267.91 835.859 267.391 834.971 266.857 834.056C264.243 828.414 264.079 823.307 264.072 817.12C264.069 816.235 264.067 815.35 264.064 814.438C264.056 811.46 264.058 808.482 264.06 805.504C264.056 803.352 264.052 801.2 264.048 799.049C264.037 793.126 264.034 787.203 264.033 781.28C264.031 774.895 264.02 768.511 264.011 762.127C263.993 748.163 263.984 734.199 263.978 720.234C263.975 711.517 263.969 702.8 263.963 694.082C263.946 669.952 263.932 645.822 263.927 621.692C263.927 620.147 263.927 618.603 263.926 617.011C263.926 614.689 263.926 614.689 263.926 612.319C263.925 609.182 263.924 606.044 263.924 602.906C263.923 601.35 263.923 599.793 263.923 598.19C263.917 572.967 263.894 547.743 263.862 522.52C263.83 496.631 263.813 470.743 263.811 444.854C263.81 430.315 263.802 415.776 263.777 401.238C263.756 388.858 263.749 376.479 263.76 364.1C263.766 357.784 263.764 351.467 263.745 345.151C263.728 339.367 263.729 333.583 263.746 327.8C263.749 325.709 263.745 323.618 263.733 321.527C263.666 309.083 263.704 298.407 271.498 288.07C278.664 280.904 286.197 278.782 296.048 278.769ZM483.176 394.123C480.056 401.532 480.707 408.785 481.13 416.714C479.527 416.799 477.923 416.883 476.271 416.97C445.702 420.473 417.477 440.125 397.925 463.091C384.725 479.826 370.645 503.864 370.645 525.836C369.294 525.723 367.944 525.611 366.553 525.495C360.209 525.533 355.275 527.549 350.185 531.292C346.142 535.765 344.413 540.391 344.046 546.381C345.029 554.116 347.778 557.965 353.748 562.855C359.526 566.028 363.601 566.158 370.069 566.085C371.228 566.094 372.388 566.102 373.583 566.111C377.46 566.133 381.335 566.116 385.212 566.098C387.995 566.106 390.778 566.115 393.561 566.127C401.114 566.152 408.667 566.143 416.219 566.125C424.124 566.111 432.028 566.124 439.932 566.133C453.206 566.143 466.479 566.13 479.753 566.104C495.099 566.074 510.445 566.084 525.791 566.114C538.967 566.138 552.142 566.142 565.318 566.128C573.188 566.119 581.057 566.118 588.926 566.136C596.324 566.152 603.722 566.141 611.121 566.109C613.836 566.102 616.551 566.104 619.266 566.116C622.973 566.131 626.678 566.112 630.384 566.085C631.459 566.097 632.533 566.11 633.64 566.122C640.695 566.022 644.645 564.543 650.268 559.936C654.783 554.709 656.666 550.623 656.236 543.595C655.118 537.573 652.791 533.147 647.812 529.486C641.607 526.052 636.958 525.62 629.808 525.836C629.608 524.695 629.407 523.554 629.201 522.378C623.944 495.096 612.296 473.472 592.98 453.543C592.262 452.725 591.545 451.908 590.806 451.065C575.001 433.688 549.146 420.76 526.143 416.714C523.87 416.661 521.595 416.646 519.323 416.714C519.386 415.529 519.449 414.344 519.515 413.123C519.864 403.383 519.864 403.383 517.277 394.123C506.139 383.263 494.314 383.263 483.176 394.123ZM355.896 630.268C352.168 635 352.009 639.446 352.353 645.326C353.219 650.39 354.831 653.067 358.369 656.782C368.862 664.008 380.16 663.008 392.389 662.914C394.644 662.915 396.899 662.917 399.155 662.92C403.866 662.922 408.576 662.905 413.287 662.874C419.308 662.835 425.327 662.839 431.348 662.856C436 662.866 440.651 662.855 445.303 662.838C447.522 662.832 449.741 662.832 451.96 662.837C455.067 662.841 458.173 662.818 461.28 662.789C463.044 662.781 464.807 662.774 466.624 662.766C475.719 661.796 481.949 658.386 487.95 651.325C489.646 646.237 490.026 641.606 489.314 636.321C485.992 629.676 482.121 626.261 475.674 622.681C471.873 622.17 468.624 621.946 464.836 621.997C463.782 621.989 462.727 621.982 461.641 621.974C458.175 621.957 454.71 621.98 451.244 622.004C448.826 622.004 446.407 622.002 443.989 621.998C438.929 621.997 433.87 622.014 428.81 622.045C422.33 622.083 415.851 622.08 409.372 622.062C404.381 622.053 399.39 622.063 394.4 622.08C392.011 622.087 389.622 622.087 387.233 622.082C383.893 622.078 380.554 622.1 377.214 622.13C376.231 622.124 375.248 622.118 374.235 622.111C365.943 622.234 361.888 624.809 355.896 630.268ZM351.719 712.877C349.414 718.767 349.285 724.2 350.185 730.438C353.176 736.533 356.305 739.862 362.461 742.715C368.276 744.229 373.992 744.277 379.961 744.27C381.027 744.274 382.094 744.278 383.193 744.283C386.762 744.294 390.332 744.296 393.901 744.298C396.462 744.305 399.024 744.312 401.585 744.319C408.54 744.337 415.496 744.346 422.452 744.352C426.799 744.356 431.147 744.361 435.494 744.367C449.102 744.386 462.711 744.399 476.319 744.405C492.017 744.411 507.715 744.435 523.413 744.474C535.554 744.504 547.696 744.517 559.837 744.519C567.085 744.521 574.333 744.529 581.581 744.553C588.402 744.576 595.222 744.578 602.043 744.566C604.541 744.565 607.039 744.571 609.537 744.585C626.936 744.876 626.936 744.876 643.448 739.987C649.711 733.567 650.753 728.98 650.652 720.267C650.089 715.173 648.21 712.38 644.812 708.614C639.025 704.169 633.813 703.938 626.767 703.993C625.642 703.986 624.517 703.979 623.357 703.971C619.59 703.952 615.823 703.961 612.055 703.971C609.353 703.963 606.65 703.954 603.948 703.943C596.609 703.918 589.271 703.92 581.932 703.928C575.807 703.932 569.682 703.923 563.556 703.915C549.107 703.896 534.657 703.898 520.208 703.914C505.298 703.929 490.388 703.91 475.478 703.874C462.679 703.843 449.88 703.834 437.08 703.842C429.435 703.847 421.79 703.844 414.145 703.82C406.956 703.799 399.767 703.804 392.579 703.83C389.94 703.835 387.302 703.831 384.664 703.817C381.062 703.799 377.461 703.814 373.859 703.838C372.816 703.825 371.772 703.812 370.697 703.799C362.317 703.914 357.215 706.648 351.719 712.877Z" fill="white"/>
<path d="M641.488 153.714C648.729 159.141 651.454 163.835 654.361 172.554C654.361 194.611 654.361 216.667 654.361 239.391C554.883 239.391 455.405 239.391 352.913 239.391C356.852 236.765 359.967 235.508 364.427 234.027C365.96 233.515 367.493 233.002 369.073 232.474C371.581 231.647 371.581 231.647 374.14 230.802C375.9 230.217 377.659 229.631 379.418 229.045C384.147 227.471 388.878 225.905 393.61 224.341C397.561 223.033 401.51 221.721 405.46 220.409C429.095 212.559 452.752 204.781 476.446 197.109C495.867 190.821 515.239 184.394 534.6 177.923C539.382 176.325 544.166 174.732 548.95 173.14C552.024 172.117 555.097 171.094 558.171 170.071C560.397 169.331 560.397 169.331 562.668 168.575C570.322 166.024 577.967 163.451 585.599 160.837C589.49 159.508 593.387 158.198 597.286 156.894C599.76 156.058 602.224 155.195 604.687 154.331C616.436 150.426 630.14 147.226 641.488 153.714Z" fill="white"/>
<path d="M554.553 471.162C571.061 483.846 583.386 500.119 588.888 520.378C588.888 522.179 588.888 523.979 588.888 525.834C530.371 525.834 471.855 525.834 411.565 525.834C414.327 506.501 424.691 487.678 440.21 475.366C474.754 450.009 518.399 446.643 554.553 471.162Z" fill="white"/>
</svg>
