<svg width="20" height="20" viewBox="0 0 20 20" fill="none" xmlns="http://www.w3.org/2000/svg">
<path d="M1.50526 1.60155L2.41151 1.78222C3.43431 1.98681 4.20402 2.8352 4.30799 3.87304L4.38123 4.60937H16.098C17.8105 4.60937 19.0669 6.21853 18.6517 7.87987L17.683 11.7568C17.2746 13.3895 15.8074 14.5351 14.1244 14.5351H6.36268C5.16126 14.5351 4.14944 13.6372 4.00623 12.4443L3.15174 5.32714L3.0199 4.00194C2.97259 3.53027 2.62244 3.14475 2.1576 3.05175L1.25135 2.87108C0.901169 2.80084 0.67378 2.45962 0.743536 2.10937C0.813624 1.75893 1.15482 1.53167 1.50526 1.60155ZM7.42029 10.6504C7.06292 10.6504 6.77304 10.9405 6.77283 11.2978C6.77283 11.6553 7.0628 11.9453 7.42029 11.9453H10.8724L11.0033 11.9316C11.2981 11.8712 11.5199 11.6105 11.5199 11.2978C11.5197 10.9853 11.298 10.7245 11.0033 10.6641L10.8724 10.6504H7.42029Z" fill="#313234"/>
<circle cx="6.98897" cy="16.9085" r="1.29464" fill="#313234"/>
<circle cx="14.7568" cy="16.9085" r="1.29464" fill="#313234"/>
</svg>
