<svg width="23" height="21" viewBox="0 0 23 21" fill="none" xmlns="http://www.w3.org/2000/svg">
<path fill-rule="evenodd" clip-rule="evenodd" d="M0.874535 1.47829C0.956903 1.06651 1.35729 0.799449 1.76907 0.881609L2.83352 1.0945C4.03549 1.33489 4.94002 2.33186 5.06204 3.55153L5.14797 4.41676H18.9156C20.9278 4.4168 22.4045 6.3074 21.9165 8.25954L20.7779 12.8142C20.2982 14.7329 18.574 16.0789 16.5962 16.0789H7.4761C6.06442 16.0788 4.87574 15.0235 4.70754 13.6218L3.70364 5.26052L3.54836 3.7029C3.49289 3.14862 3.08185 2.69508 2.53567 2.58571L1.47122 2.37282C1.05931 2.29044 0.792153 1.8902 0.874535 1.47829ZM8.71926 11.5144C8.29935 11.5144 7.95876 11.8553 7.95852 12.2752C7.95852 12.6952 8.29919 13.0359 8.71926 13.0359H12.7759L12.854 13.032C13.2372 12.9927 13.5366 12.6688 13.5366 12.2752C13.5364 11.8817 13.2371 11.5575 12.854 11.5183L12.7759 11.5144H8.71926Z" fill="#FDBB2A"/>
<path d="M9.7335 18.8677C9.7335 19.7078 9.05244 20.3889 8.2123 20.3889C7.37217 20.3889 6.6911 19.7078 6.6911 18.8677C6.6911 18.0275 7.37217 17.3465 8.2123 17.3465C9.05244 17.3465 9.7335 18.0275 9.7335 18.8677Z" fill="#FDBB2A"/>
<path d="M18.8607 18.8677C18.8607 19.7078 18.1796 20.3889 17.3395 20.3889C16.4994 20.3889 15.8183 19.7078 15.8183 18.8677C15.8183 18.0275 16.4994 17.3465 17.3395 17.3465C18.1796 17.3465 18.8607 18.0275 18.8607 18.8677Z" fill="#FDBB2A"/>
</svg>
