<svg width="1000" height="1000" viewBox="0 0 1000 1000" fill="none" xmlns="http://www.w3.org/2000/svg">
<path d="M313.196 235.752C333.888 239.004 344.692 246.97 357.08 263.321C367.932 277.646 373.628 290.342 380.778 306.612C370.993 306.767 360.927 306.33 351.325 306.974C330.845 308.347 316.435 326.598 318.445 346.749C319.252 354.839 320.088 363.215 320.754 371.275L317.52 370.129C302.216 364.478 287.776 356.719 274.618 347.076C258.083 334.985 249.723 324.064 246.468 303.231C257.079 286.058 262.226 272.701 262.751 252.131C279.657 251.923 299.928 246.426 313.196 235.752ZM332.138 294.741C338.869 293.679 343.446 287.335 342.331 280.611C341.216 273.888 334.835 269.361 328.121 270.529C321.481 271.685 317.015 277.979 318.118 284.628C319.221 291.277 325.48 295.792 332.138 294.741ZM296.182 330.705C302.742 329.513 307.104 323.242 305.941 316.677C304.778 310.112 298.527 305.722 291.957 306.857C285.345 307.998 280.922 314.297 282.093 320.903C283.263 327.509 289.581 331.904 296.182 330.705Z" fill="white"/>
<path d="M740.649 710.967C742.464 711.367 760.545 729.998 763.323 732.783C777.162 746.715 791.073 760.574 805.053 774.362C801.324 777.804 793.162 783.033 788.759 785.675C773.15 794.459 758.685 798.728 740.881 800.724C740.697 796.746 740.68 792.248 740.758 788.256C741.264 762.724 739.866 736.434 740.649 710.967Z" fill="white"/>
<path d="M609.062 692.916L699.572 692.926C689.8 701.638 676.621 715.737 667.211 725.178C659.832 732.936 651.755 740.305 644.356 748.078C641.522 751.051 638.313 754.343 635.278 757.091C626.384 746.892 618.13 731.289 613.936 718.414C612.597 714.298 607.6 695.811 609.062 692.916Z" fill="white"/>
<path d="M634.742 604.557C637.206 606.043 650.508 619.947 653.417 622.866L698.968 668.342C691.653 668.854 680.381 668.574 672.834 668.608L608.417 668.54C610.358 645.989 620.301 621.933 634.742 604.557Z" fill="white"/>
<path d="M715.77 711.068L716.18 711.273C716.591 712.097 716.594 793.997 716.625 800.706C698.113 798.386 685.071 794.797 668.696 785.319C662.984 782.089 657.577 778.346 652.546 774.136C661.733 764.384 671.898 754.674 681.434 745.234L715.77 711.068Z" fill="white"/>
<path d="M185.19 180.894C193.337 180.709 202.952 185.841 209.789 189.966C214.022 192.527 218.123 195.3 222.075 198.276C233.916 207.247 245.063 217.659 255.769 227.959C258.431 230.52 261.34 233.867 262.16 237.542C262.837 240.523 262.256 243.652 260.552 246.192C258.339 249.556 255.122 251.279 251.256 252.013C243.756 251.716 239.336 245.769 234.321 240.892C222.696 229.347 210.413 218.885 196.586 210.093C190.009 205.912 185.642 205.636 178.981 202.856C173.644 200.628 172.175 191.059 175.77 186.553C178.824 182.726 180.346 181.862 185.19 180.894Z" fill="white"/>
<path d="M223.843 253.678C229.741 253.647 235.272 257.172 236.336 263.121C237.708 270.786 232.438 281.248 227.922 287.041C221.102 295.747 211.11 301.394 200.135 302.745C197.119 302.912 194.082 302.096 191.738 300.216C186.137 295.54 187.15 289.226 188.948 283.131C193.599 267.366 207.205 255.473 223.843 253.678Z" fill="white"/>
<path d="M298.992 177.135C302.184 176.753 305.469 177.063 308.217 178.84C318.382 185.411 310.756 201.541 305.812 208.901C299.723 217.966 288.771 223.835 278.293 225.727C274.919 225.952 272.156 225.719 269.22 223.792C266.567 222.028 264.788 219.221 264.325 216.069C263.301 209.544 268.319 198.954 271.997 193.657C277.989 185.026 288.716 178.908 298.992 177.135Z" fill="white"/>
<path d="M354.765 453.997C364.514 459.242 378.088 466.033 388.388 469.549C415.314 478.679 444.614 477.903 471.019 467.36C476.941 464.974 482.737 461.992 488.665 459.729C503.772 454.061 520.034 452.164 536.04 454.204C557.252 456.83 562.467 462.938 580.111 469.207C607.437 478.697 637.265 478.039 664.147 467.354C673.406 463.728 682.911 458.492 691.982 454.147C690.359 466.309 689.234 478.107 687.87 490.283L680.867 552.635L676.694 590.221C676.154 595.174 674.862 604.283 674.752 609.044C674.612 608.993 674.469 608.945 674.332 608.887C672.322 608.066 668.549 603.268 666.71 601.552C655.315 590.922 644.463 579.561 633.447 568.535C627.913 562.998 618.155 551.797 611.395 548.369C605.43 545.341 598.714 544.767 592.408 547.132C577.284 552.799 558.499 587.077 551.974 601.75C531.187 648.61 529.843 701.802 548.242 749.65C560.991 783.056 582.756 812.269 611.121 834.041C615.835 837.644 620.695 841.055 625.688 844.264C627.719 845.549 633.471 848.824 634.941 849.996H407.331C405.907 848.403 402.814 847.969 400.576 845.771C398.373 843.608 397.797 841.058 397.422 838.064C396.534 830.975 395.825 823.774 395.065 816.678L391.121 781.371L378.062 663.621L361.839 517.092C359.601 496.718 356.41 474.311 354.765 453.997ZM437.437 584.093C460.68 581.543 477.427 560.592 474.795 537.357C472.164 514.122 451.155 497.446 427.93 500.156C404.816 502.856 388.239 523.74 390.858 546.862C393.477 569.987 414.305 586.633 437.437 584.093ZM416.912 644.546C421.203 643.753 424.737 640.714 426.165 636.589C427.593 632.463 426.694 627.89 423.812 624.612C420.93 621.338 416.509 619.862 412.236 620.75C405.731 622.104 401.526 628.44 402.807 634.958C404.088 641.48 410.378 645.756 416.912 644.546ZM428.197 704.984C434.734 704.209 439.445 698.34 438.789 691.791C438.132 685.243 432.35 680.423 425.79 680.963C421.439 681.319 417.62 683.998 415.801 687.967C413.983 691.935 414.448 696.573 417.018 700.104C419.588 703.631 423.862 705.497 428.197 704.984Z" fill="white"/>
<path d="M430.255 524.333C440.088 522.915 449.207 529.74 450.621 539.573C452.035 549.41 445.207 558.526 435.373 559.937C425.542 561.349 416.429 554.523 415.016 544.693C413.603 534.864 420.425 525.748 430.255 524.333Z" fill="white"/>
<path d="M304.231 553.748C312.122 536.823 320.373 524.501 335.816 512.617C342.963 507.118 353.071 500.637 359.771 512.959C361.141 515.478 360.343 520.495 359.737 523.301L359.44 523.732C356.427 528.039 347.654 532.742 342.716 538.057C322.645 559.654 317.752 584.909 318.034 613.021C325.699 612.55 339.901 605.663 346.535 601.52L366.891 783.896C368.929 802.449 371.486 821.948 373.219 840.439C367.341 843.395 363.214 845.367 356.785 847.326C354.651 847.975 347.91 849.363 346.477 849.981H332.477C331.688 849.619 328.924 849.011 327.554 848.799C320.376 847.705 311.344 841.676 304.378 841.303C303.127 841.235 295.079 845.477 293.349 846.157C289.505 847.671 283.51 848.385 280.368 849.981H265.788C264.371 849.257 257.824 847.989 255.758 847.384C252.059 846.304 248.626 845.121 245.087 843.535C222.71 833.514 203.938 813.403 191.23 792.861C166.289 752.544 154.357 698.965 165.472 652.372C170.351 631.922 181.238 609.921 199.783 598.851C216.962 587.818 240.313 588.214 258.193 597.692C270.969 604.463 279.01 609.846 293.887 613.445C293.673 597.583 294.727 585.883 298.61 570.428C299.571 567.119 300.312 564.767 301.542 561.531C298.331 564.952 297.379 566.097 293.386 568.404C280.379 573.48 261.317 573.23 248.247 567.762C239.935 564.029 218.932 555.201 215.393 546.468C209.993 533.142 224.079 529.402 233.712 529.17C248.922 528.804 263.206 528.596 277.165 535.278C286.86 539.919 297.208 546.41 300.919 556.677C301.124 557.802 301.543 558.984 301.889 560.092C302.695 558.024 303.462 555.84 304.231 553.748ZM204.759 743.493C215.356 740.94 216.743 733.79 213.913 724.059C206.534 698.681 207.723 669.051 219.965 645.351C222.384 640.665 226.932 638.888 231.205 636.581C235.153 634.329 236.765 628.101 235.496 623.723C234.574 620.517 232.382 617.83 229.428 616.282C227.174 615.093 225.407 614.912 222.918 614.946C190.016 621.327 182.507 676.526 186.138 703.979C186.779 708.822 187.212 714.403 188.339 719.154C190.687 729.059 190.842 744.002 204.759 743.493Z" fill="white"/>
<path d="M762.421 150H767.677C776.171 154.143 780.662 162.78 772.688 170.502C769.127 173.95 763.75 177.208 759.608 180.084L739.374 194.184L686.082 231.466C676.31 238.301 663.083 247.055 653.909 254.267C646.701 273.342 639.649 292.476 632.756 311.667C630.496 317.93 627.806 324.582 625.766 330.848C647.33 330.761 668.886 330.959 690.477 331.038C696.452 330.408 704.094 334.716 704.138 341.443C704.19 348.456 702.788 357.697 701.975 364.85L697.873 400.95C696.985 408.616 695.758 417.394 695.283 425.007C682.787 431.28 662.618 442.367 650.047 446.472C628.657 453.547 605.474 452.944 584.481 444.768C576.555 441.651 570.016 437.821 561.591 435.008C545.65 429.745 528.803 427.782 512.08 429.238C501.904 430.154 488.702 433.032 479.316 437.031C470.01 440.996 463.037 444.693 453.121 447.6C432.925 453.496 411.341 452.505 391.77 444.782C385.262 442.256 378.095 438.525 371.789 435.349C365.158 432.008 358.08 428.55 351.586 424.997C350.843 420.405 350.348 414.79 349.79 410.081C348.417 398.634 347.128 387.177 345.923 375.71C344.739 365.01 343.049 354.333 342.482 343.579C341.941 337.572 346.755 331.238 353.029 331.044C361.094 330.795 369.511 330.998 377.638 331.003L426.29 330.875L599.814 330.773L621.135 273.444C624.283 264.952 627.376 256.446 630.459 247.931C631.737 245.004 632.79 240.002 635.381 237.986C642.637 232.336 650.587 227.081 658.144 221.833L699.432 193.02L736.062 167.323C744.08 161.685 753.842 154.431 762.421 150Z" fill="white"/>
<path d="M600.712 569.77C606.358 575.522 611.71 581.51 617.661 586.951C610.952 595.445 605.353 603.361 600.226 612.958C586.743 638.562 581.219 667.61 584.364 696.379C588.67 734.988 608.231 770.271 638.691 794.381C668.533 818.149 706.547 829.189 744.476 825.101C773.644 821.686 799.405 810.1 822.37 792.005C828.235 797.457 833.751 803.175 839.36 808.883C817.267 827.107 794.568 839.35 766.395 845.762C761.517 846.835 756.599 847.72 751.65 848.414C749.223 848.759 743.871 849.341 741.728 849.983H716.603C712.009 848.794 706.421 848.472 701.67 847.659C695.453 846.593 689.417 845.331 683.326 843.636C642.133 832.019 606.84 805.277 584.511 768.76C561.02 730.244 553.791 683.975 564.414 640.127C570.33 615.587 583.673 588.602 600.712 569.77Z" fill="white"/>
<path d="M354.007 452.816C364.269 458.081 375.89 464.196 386.661 468.13C411.206 476.934 437.968 477.404 462.806 469.467C470.203 467.084 476.544 464.166 483.587 461.007C506.595 450.686 534.724 449.747 558.222 459.01C566.285 462.189 574.037 466.442 582.23 469.145C595.977 473.682 610.216 475.441 624.656 475.099C626.792 475.049 628.898 474.657 631.017 474.417C651.083 473.119 669.663 464.931 687.17 455.586C688.479 454.887 690.526 453.768 691.979 453.792C692.72 454.71 692.461 455.068 692.3 456.609L680.788 559.327L677.23 591.927C676.919 594.791 675.962 607.208 674.749 609.047C674.858 604.286 676.15 595.177 676.69 590.225L680.864 552.638L687.867 490.286C689.231 478.11 690.355 466.313 691.979 454.15C682.908 458.495 673.402 463.731 664.143 467.357C637.261 478.043 607.433 478.7 580.107 469.21C562.464 462.942 557.248 456.833 536.037 454.207C520.031 452.168 503.768 454.064 488.662 459.732C482.734 461.995 476.937 464.977 471.016 467.364C444.61 477.906 415.31 478.682 388.384 469.552C378.085 466.036 364.51 459.245 354.761 454.001C356.406 474.314 359.598 496.721 361.836 517.095L378.059 663.624L391.118 781.374L395.062 816.681C395.822 823.777 396.53 830.979 397.418 838.067C397.794 841.061 398.37 843.611 400.572 845.775C402.811 847.972 405.904 848.406 407.327 849.999H405.836L404.278 849.169C399.945 846.882 397.622 844.384 396.844 839.458C396.089 834.684 395.683 829.875 395.178 825.069L392.592 801.356L383.72 721.042C376.533 654.064 368.146 586.824 361.401 519.84C360.982 521.118 360.721 522.472 359.737 523.319C360.343 520.513 361.141 515.496 359.771 512.977C353.071 500.655 342.963 507.135 335.816 512.635C320.373 524.519 312.122 536.84 304.231 553.766L304.173 552.553C311.054 535.108 327.266 515.174 344.361 506.226C350.347 503.092 357.148 506.589 360.423 512.375C359.011 498.891 357.522 485.417 355.955 471.95C355.415 467.19 353.901 457.057 354.007 452.816Z" fill="#9B9599" fill-opacity="0.294118"/>
<path d="M293.388 568.414C297.38 566.107 298.332 564.962 301.544 561.541C300.313 564.778 299.572 567.129 298.612 570.438C297.106 569.638 295.041 568.852 293.388 568.414Z" fill="#FFFEFF" fill-opacity="0.0117647"/>
<path d="M300.919 556.681C302.186 554.989 301.822 553.557 303.316 552.299L304.174 552.538L304.231 553.751C303.463 555.843 302.696 558.027 301.889 560.095C301.544 558.988 301.125 557.805 300.919 556.681Z" fill="#FFFEFF" fill-opacity="0.0352941"/>
</svg>
