<svg width="21" height="20" viewBox="0 0 21 20" fill="none" xmlns="http://www.w3.org/2000/svg">
<path d="M10.5005 0.000244141C5.00049 0.000244141 0.500488 4.50024 0.500488 10.0002C0.500488 12.3002 1.30049 14.5002 2.80049 16.3002L0.800488 18.3002C0.400488 18.7002 0.400488 19.3002 0.800488 19.7002C1.00049 19.9002 1.20049 20.0002 1.50049 20.0002H10.5005C16.0005 20.0002 20.5005 15.5002 20.5005 10.0002C20.5005 4.50024 16.0005 0.000244141 10.5005 0.000244141ZM6.50049 11.0002C5.90049 11.0002 5.50049 10.6002 5.50049 10.0002C5.50049 9.40024 5.90049 9.00024 6.50049 9.00024C7.10049 9.00024 7.50049 9.40024 7.50049 10.0002C7.50049 10.6002 7.10049 11.0002 6.50049 11.0002ZM10.5005 11.0002C9.90049 11.0002 9.50049 10.6002 9.50049 10.0002C9.50049 9.40024 9.90049 9.00024 10.5005 9.00024C11.1005 9.00024 11.5005 9.40024 11.5005 10.0002C11.5005 10.6002 11.1005 11.0002 10.5005 11.0002ZM14.5005 11.0002C13.9005 11.0002 13.5005 10.6002 13.5005 10.0002C13.5005 9.40024 13.9005 9.00024 14.5005 9.00024C15.1005 9.00024 15.5005 9.40024 15.5005 10.0002C15.5005 10.6002 15.1005 11.0002 14.5005 11.0002Z" fill="#FDBB2A"/>
</svg>
