<?xml version="1.0" encoding="utf-8" ?>
<svg xmlns="http://www.w3.org/2000/svg" xmlns:xlink="http://www.w3.org/1999/xlink" width="900" height="600">
	<path fill="#FEFEFE" d="M0 0L899.231 0C900.725 2.37048 900.014 38.3486 900.015 44.5119L900.018 157.611L900.013 186.578C900.012 190.22 900.578 194.98 899.857 198.484C899.749 199.009 899.502 199.535 899.233 199.996C900.737 202.396 900.014 238.326 900.015 244.512L900.018 357.611L900.013 386.579C900.012 390.223 900.576 394.977 899.857 398.486C899.749 399.012 899.502 399.541 899.233 400.004C900.724 402.37 900.014 438.353 900.015 444.512L900.018 557.611L900.013 586.578C900.012 590.22 900.578 594.981 899.856 598.485C899.748 599.011 899.501 599.539 899.231 600L0 600L0 400.021L0 199.997L0 0Z"/>
	<path fill="#EE2124" d="M0 0L899.231 0C900.725 2.37048 900.014 38.3486 900.015 44.5119L900.018 157.611L900.013 186.578C900.012 190.22 900.578 194.98 899.857 198.484C899.749 199.009 899.502 199.535 899.233 199.996C885.146 199.745 871.007 199.981 856.914 199.98L773.863 199.977L523.385 199.978C527.42 192.353 530.992 184.395 534.768 176.632C527.051 183.843 520.409 192.436 513.004 200.002L487.817 199.995L494.381 156.909L473.762 200.005L457.278 199.989C455.502 183.304 452.276 166.62 450.018 149.975L442.651 200.004L426.213 200.003C419.17 185.716 412.442 171.258 405.583 156.882L412.167 199.989L387.005 199.997C379.29 192.669 372.263 184.15 365.047 176.311L376.619 199.988L0 199.997L0 0Z"/>
	<path fill="#268E43" d="M409.507 400.013L427.67 400.009C427.624 416.306 428.273 432.921 427.448 449.178C431.07 440.94 433.222 431.432 435.847 422.806C438.112 415.364 441.09 407.618 442.721 400.037L457.217 399.987C462.246 416.56 467.16 433.189 472.423 449.688L472.345 400.018L490.424 400.005C498.778 412.122 507.057 424.29 515.262 436.508C511.74 424.27 507.64 412.209 503.946 400.025L538.069 400.016C543.082 403.625 547.788 407.68 552.552 411.609C549.959 407.741 547.411 403.832 544.748 400.012L780.508 400.019L859.13 400.017C872.484 400.017 885.884 400.255 899.233 400.004C900.724 402.37 900.014 438.353 900.015 444.512L900.018 557.611L900.013 586.578C900.012 590.22 900.578 594.981 899.856 598.485C899.748 599.011 899.501 599.539 899.231 600L0 600L0 400.021L355.222 400.049C352.619 403.873 349.844 407.661 347.465 411.624C352.152 407.722 356.817 403.505 361.823 400.024L395.931 400.042C392.218 412.329 388.393 424.581 384.455 436.797C392.911 424.722 400.624 411.743 409.507 400.013Z"/>
	<path fill="#FEFEFE" d="M376.619 199.988C383.939 215.116 391.411 230.186 398.575 245.388L332.635 207.125C349.559 226.162 367.287 244.565 384.628 263.227C359.694 257.453 334.682 251.874 309.823 245.792C331.901 258.575 353.942 271.845 376.418 283.891C351.075 286.491 325.504 287.356 300.109 289.47C314.321 292.87 328.563 296.142 342.833 299.285C353.537 301.706 364.261 304.424 375.057 306.39L328.438 324.55C320.073 327.811 311.33 330.779 303.216 334.616C328.643 331.811 354.349 331.284 379.763 328.455C359.835 344.303 339.499 359.752 319.873 375.965L390.989 347.747C379.196 365.208 367.545 382.969 355.222 400.049L0 400.021L0 199.997L376.619 199.988Z"/>
	<path fill="#FEBD11" d="M450.018 149.975C452.276 166.62 455.502 183.304 457.278 199.989L473.762 200.005L494.381 156.909L487.817 199.995L513.004 200.002C520.409 192.436 527.051 183.843 534.768 176.632C530.992 184.395 527.42 192.353 523.385 199.978L501.283 245.541C523.414 232.602 545.857 220.071 567.781 206.795L515.312 263.29C540.267 257.35 565.455 252.091 590.3 245.738C568.255 258.651 546.084 271.711 523.614 283.858C548.516 286.91 574.748 287.023 599.854 289.454C587.227 292.841 574.304 295.422 561.551 298.303C549.441 301.039 537.284 304.146 525.086 306.412L572.715 325.035C580.703 328.147 589.154 330.937 596.875 334.638C571.443 331.788 545.76 331.062 520.3 328.482C540.112 344.683 560.604 360.05 580.439 376.224C556.87 366.554 533.121 356.68 509.221 347.887C520.188 365.738 533.191 382.515 544.748 400.012C547.411 403.832 549.959 407.741 552.552 411.609C547.788 407.68 543.082 403.625 538.069 400.016L503.946 400.025C507.64 412.209 511.74 424.27 515.262 436.508C507.057 424.29 498.778 412.122 490.424 400.005L472.345 400.018L472.423 449.688C467.16 433.189 462.246 416.56 457.217 399.987L442.721 400.037C441.09 407.618 438.112 415.364 435.847 422.806C433.222 431.432 431.07 440.94 427.448 449.178C428.273 432.921 427.624 416.306 427.67 400.009L409.507 400.013C400.624 411.743 392.911 424.722 384.455 436.797C388.393 424.581 392.218 412.329 395.931 400.042L361.823 400.024C356.817 403.505 352.152 407.722 347.465 411.624C349.844 407.661 352.619 403.873 355.222 400.049C367.545 382.969 379.196 365.208 390.989 347.747L319.873 375.965C339.499 359.752 359.835 344.303 379.763 328.455C354.349 331.284 328.643 331.811 303.216 334.616C311.33 330.779 320.073 327.811 328.438 324.55L375.057 306.39C364.261 304.424 353.537 301.706 342.833 299.285C328.563 296.142 314.321 292.87 300.109 289.47C325.504 287.356 351.075 286.491 376.418 283.891C353.942 271.845 331.901 258.575 309.823 245.792C334.682 251.874 359.694 257.453 384.628 263.227C367.287 244.565 349.559 226.162 332.635 207.125L398.575 245.388C391.411 230.186 383.939 215.116 376.619 199.988L365.047 176.311C372.263 184.15 379.29 192.669 387.005 199.997L412.167 199.989L405.583 156.882C412.442 171.258 419.17 185.716 426.213 200.003L442.651 200.004L450.018 149.975Z"/>
	<path fill="#FEFEFE" d="M492.567 363.348L523.554 388.153C528.21 391.887 534.007 395.676 538.069 400.016L503.946 400.025C500.196 387.798 496.114 375.631 492.567 363.348Z"/>
	<path fill="#FEFEFE" d="M361.823 400.024C376.849 387.691 391.963 375.195 407.404 363.392L399.771 388.074C398.572 391.941 397.591 396.371 395.931 400.042L361.823 400.024Z"/>
	<path fill="#FEFEFE" d="M412.167 199.989C414.035 210.952 415.576 222 417.245 232.996C407.35 221.878 396.565 211.389 387.005 199.997L412.167 199.989Z"/>
	<path fill="#FEFEFE" d="M487.817 199.995L513.004 200.002C503.215 211.321 492.666 222.045 482.659 233.185C484.649 222.19 486.1 211.039 487.817 199.995Z"/>
	<path fill="#FEFEFE" d="M472.011 372.8C477.982 381.497 485.305 390.921 490.424 400.005L472.345 400.018C472.321 390.967 472.529 381.835 472.011 372.8Z"/>
	<path fill="#FEFEFE" d="M409.507 400.013C415.523 391.077 421.279 381.549 427.893 373.064C427.509 382.022 427.686 391.042 427.67 400.009L409.507 400.013Z"/>
	<path fill="#FEFEFE" d="M457.278 199.989L473.762 200.005C469.515 208.691 465.166 217.439 461.353 226.321C459.796 217.59 458.676 208.752 457.278 199.989Z"/>
	<path fill="#FEFEFE" d="M426.213 200.003L442.651 200.004L438.727 226.041C434.416 217.439 430.376 208.679 426.213 200.003Z"/>
	<path fill="#FEFEFE" d="M442.721 400.037C445.185 392.225 447.594 384.395 449.948 376.549C452.558 384.309 454.678 392.211 457.217 399.987L442.721 400.037Z"/>
</svg>
