<svg width="20" height="20" viewBox="0 0 20 20" fill="none" xmlns="http://www.w3.org/2000/svg">
<path d="M9.991 1C5.023 1 1 5.032 1 10C1 14.968 5.023 19 9.991 19C14.968 19 19 14.968 19 10C19 5.032 14.968 1 9.991 1ZM16.228 6.4H13.573C13.285 5.275 12.871 4.195 12.331 3.196C13.987 3.763 15.364 4.915 16.228 6.4ZM10 2.836C10.747 3.916 11.332 5.113 11.719 6.4H8.281C8.668 5.113 9.253 3.916 10 2.836ZM3.034 11.8C2.89 11.224 2.8 10.621 2.8 10C2.8 9.379 2.89 8.776 3.034 8.2H6.076C6.004 8.794 5.95 9.388 5.95 10C5.95 10.612 6.004 11.206 6.076 11.8H3.034ZM3.772 13.6H6.427C6.715 14.725 7.129 15.805 7.669 16.804C6.013 16.237 4.636 15.094 3.772 13.6ZM6.427 6.4H3.772C4.636 4.906 6.013 3.763 7.669 3.196C7.129 4.195 6.715 5.275 6.427 6.4ZM10 17.164C9.253 16.084 8.668 14.887 8.281 13.6H11.719C11.332 14.887 10.747 16.084 10 17.164ZM12.106 11.8H7.894C7.813 11.206 7.75 10.612 7.75 10C7.75 9.388 7.813 8.785 7.894 8.2H12.106C12.187 8.785 12.25 9.388 12.25 10C12.25 10.612 12.187 11.206 12.106 11.8ZM12.331 16.804C12.871 15.805 13.285 14.725 13.573 13.6H16.228C15.364 15.085 13.987 16.237 12.331 16.804ZM13.924 11.8C13.996 11.206 14.05 10.612 14.05 10C14.05 9.388 13.996 8.794 13.924 8.2H16.966C17.11 8.776 17.2 9.379 17.2 10C17.2 10.621 17.11 11.224 16.966 11.8H13.924Z" fill="#313234"/>
</svg>
