<svg width="17" height="17" viewBox="0 0 17 17" fill="none" xmlns="http://www.w3.org/2000/svg">
<path d="M7.46567 2.35236C7.78366 1.82396 8.54972 1.82396 8.86772 2.35236L10.4567 4.99264C10.5709 5.18247 10.7572 5.31785 10.9731 5.36784L13.9751 6.06312C14.5759 6.20227 14.8127 6.93083 14.4084 7.39655L12.3884 9.72361C12.2431 9.89092 12.1719 10.11 12.1911 10.3307L12.4575 13.4007C12.5109 14.0151 11.8911 14.4654 11.3233 14.2248L8.48586 13.0227C8.28186 12.9363 8.05153 12.9363 7.84753 13.0227L5.01014 14.2248C4.44229 14.4654 3.82253 14.0151 3.87585 13.4007L4.14229 10.3307C4.16144 10.11 4.09027 9.89092 3.94503 9.72361L1.92499 7.39655C1.52072 6.93083 1.75745 6.20227 2.35825 6.06312L5.36031 5.36784C5.57615 5.31785 5.76249 5.18247 5.87673 4.99264L7.46567 2.35236Z" fill="#FDBB2A" stroke="#FDBB2A" stroke-width="1.02273"/>
</svg>
