<svg width="1000" height="1000" viewBox="0 0 1000 1000" fill="none" xmlns="http://www.w3.org/2000/svg">
<path d="M814.416 481.326C802.103 449.289 788.617 413.908 766.963 386.807C750.594 366.321 719.901 348.579 692.729 352.728C692.377 352.782 690.106 353.278 686.162 354.16C687.143 360.959 687.644 367.853 687.644 374.82C687.644 394.161 683.847 412.947 676.357 430.655C669.131 447.738 658.797 463.07 645.641 476.227C632.485 489.382 617.152 499.717 600.07 506.942C582.362 514.432 563.576 518.23 544.235 518.23C524.895 518.23 506.11 514.432 488.401 506.942C471.318 499.716 455.987 489.382 442.83 476.227C429.674 463.07 419.339 447.738 412.114 430.655C410.338 426.455 408.777 422.193 407.417 417.878C294.724 443.729 190.236 467.74 184.134 469.16C178.756 470.412 172.209 471.159 167.382 473.728C163.31 475.894 160.392 479.358 160.392 485.512V766.813C160.392 777.898 172.111 788.11 186.552 789.614L291.121 800.489L761.463 849.443C804.715 853.95 839.829 830.631 839.829 797.342C839.829 776.327 825.843 756.431 804.652 743.422C825.843 734.858 839.833 717.83 839.833 696.847C839.833 675.868 825.844 655.971 804.69 642.999C867.209 617.532 831.89 526.795 814.416 481.326ZM676.714 794.893L215.653 746.885V700.8L676.714 748.772C719.968 753.284 755.075 767.236 755.075 779.962C755.075 792.691 719.968 799.404 676.714 794.893ZM676.714 703.038L215.653 655.029V608.907L676.714 656.951C719.968 661.463 755.075 675.412 755.075 688.141C755.075 700.868 719.968 707.549 676.714 703.038ZM676.714 611.182L215.653 563.206V517.085L676.714 565.061C719.968 569.569 755.075 583.559 755.075 596.283C755.075 609.048 719.968 615.69 676.714 611.182Z" fill="white"/>
<path d="M445.037 374.821C445.037 386.439 447.042 397.588 450.711 407.95C464.347 446.443 501.067 474.019 544.234 474.019C599.02 474.019 643.432 429.607 643.432 374.821C643.432 371.158 643.228 367.544 642.84 363.984C637.441 314.297 595.357 275.623 544.234 275.623C539.013 275.623 533.887 276.029 528.884 276.807C525.489 269.861 521.727 263.073 517.672 256.455C513.585 249.784 509.204 243.285 504.619 236.965C499 229.219 493.076 221.742 487 214.556C475.704 201.193 463.442 188.544 449.965 177.362C438.163 167.568 425.613 158.135 411.512 151.894C403.537 148.365 394.393 149.489 389.622 157.634C385.59 164.516 387.382 175.994 395.362 179.525C401.98 182.454 408.269 186.104 414.256 190.161C415.987 191.334 417.703 192.526 419.391 193.758C420.006 194.207 422.211 195.889 422.792 196.317C425.35 198.342 427.878 200.403 430.347 202.536C436.86 208.164 443.123 214.084 449.103 220.275C455.399 226.794 461.453 233.552 467.19 240.569C468.82 242.563 470.437 244.568 472.021 246.599C472.025 246.603 472.028 246.607 472.032 246.612C472.089 246.687 472.152 246.77 472.222 246.861C472.888 247.743 473.557 248.623 474.216 249.51C474.24 249.543 474.263 249.577 474.288 249.609C476.892 253.118 479.443 256.666 481.899 260.281C483.614 262.806 485.293 265.356 486.938 267.929C490.145 272.948 493.204 278.062 496.052 283.294C496.725 284.531 497.387 285.774 498.042 287.021C466.524 303.636 445.037 336.716 445.037 374.821Z" fill="white"/>
</svg>
