<svg width="2966" height="3996" viewBox="0 0 2966 3996" fill="none" xmlns="http://www.w3.org/2000/svg">
<path d="M289.609 554.854C305.773 385.574 447.819 302.804 560.464 306.111C589.092 306.952 618.225 306.098 646.895 306.094L868.407 306.077L1588.59 306.093L2187.93 306.143L2358.03 306.045C2385.54 306.027 2413.73 305.561 2441 306.428C2544.21 309.707 2673.47 391.454 2692.88 541.976C2697.36 576.783 2695.27 637.922 2695.26 675.068L2695.21 895.588V1654.75C2713.68 1627.26 2724.28 1605.45 2739.11 1574.33L2753.15 1581.45C2742.84 1616.3 2744.74 1647.43 2755.62 1681.53C2797.01 1811.16 2956.83 1938.42 2964.11 2076.45C2965.19 2097.04 2961.25 2118.31 2955.72 2137.4C2928.56 2231.16 2816.17 2407.41 2759.88 2474L2744.44 2474.04C2730.23 2450.21 2710.41 2415.07 2695.24 2394.02C2695.28 2432.78 2696.49 2472.39 2686.4 2509.22C2649.23 2644.78 2532.27 2709.04 2431.9 2711.32C2413.95 2711.73 2396.11 2711.66 2378.23 2711.66L2264.64 2711.64H1870.46L562.615 2711.68C476.221 2710.92 366.029 2666.98 317.76 2562.46C315.053 2558.97 316.637 2560.03 313.049 2559.17C313.898 2554.18 300.746 2521.26 298.138 2510.55C294.138 2494.13 292.206 2485.09 289.237 2468.04C288.029 2452.29 288.565 2423.47 288.578 2407.05L288.67 2299.49L288.676 1950.55L288.645 821.382C288.64 789.706 286.205 567.994 289.609 554.854Z" fill="#EACB34"/>
<path d="M289.609 554.854L289.503 1812.15L289.512 2237.82C289.516 2312.65 288.482 2392.81 289.881 2467.32C398.78 2458.08 514.32 2409.18 589.505 2297.92C607.883 2270.73 638.37 2204.48 633.702 2165.42C621.79 2065.73 492.908 1996.01 441.716 1935.2C401.917 1887.93 347.684 1856.36 378.437 1773.48C405.132 1708.53 443.311 1655.84 475.511 1596.17C480.568 1586.8 482.98 1576.33 491.731 1573.05C498.375 1576.02 496.108 1573.35 499.636 1579.82C500.043 1605.01 489.103 1609.28 499.812 1644.27C539.111 1772.69 711.044 1865.3 708.132 2015.37C703.514 2253.38 604.518 2572.75 395.375 2569.92C389.56 2569.86 316.998 2563.05 317.76 2562.46C315.053 2558.97 316.637 2560.03 313.049 2559.17C313.898 2554.18 300.746 2521.26 298.138 2510.55C294.138 2494.13 292.206 2485.09 289.237 2468.04C288.029 2452.29 288.565 2423.47 288.578 2407.05L288.67 2299.49L288.676 1950.55L288.645 821.382C288.64 789.706 286.205 567.994 289.609 554.854Z" fill="#0C2932"/>
<path d="M1676.38 376.449C1680.17 376.98 1680.69 377.301 1684.35 378.896C1687.8 391.43 1685.44 695.241 1685.43 732.232L1702.71 725.144C1755.29 704.051 1802.59 698.223 1856.49 693.871C1998.7 681.449 2130.59 721.233 2255.98 810.719C2430.97 935.608 2546.59 1154.74 2539.45 1427.91C2539.17 1438.65 2540.42 1471.57 2531.27 1474.64C2525.56 1465.13 2528.98 1408.2 2528.35 1392.03C2510.76 943.767 2160.4 692.395 1857.08 725.358C1792.58 732.368 1747.22 738.464 1685.4 769.312L1685.42 1553.18L1685.33 1827.4C1685.3 1875.86 1685.01 1924.48 1685.6 1972.8C1686.31 2031.32 1721.03 2040.37 1756.37 2044.37C1777.19 2046.73 1796.23 2046.4 1817.06 2046.39L1991.96 2046.14C2041.45 2046.06 2076.77 2038.32 2123.24 2064.94C2108.32 2045.31 2088.75 2023.09 2086.28 1993.72C2082.78 1952.7 2101.89 1911.65 2120.57 1880.93C2150 1832.54 2179.68 1786.99 2207.53 1736.52C2213.05 1739 2214.49 1739.78 2219.67 1743.3C2222.16 1750.31 2212.42 1770.24 2213.24 1791.18C2216.94 1884.74 2304.64 1983.91 2353.54 2046.23C2396.25 2046.12 2395 2045.34 2434.82 2065.24C2413.73 2034.09 2383.99 2009.15 2377.24 1964.07C2370.11 1916.54 2396.08 1873.39 2418.15 1840.6C2451.56 1790.94 2484.01 1743.9 2512.43 1688.78C2517.36 1691.15 2522.42 1694.05 2527.29 1696.71C2521.16 1711.26 2518.33 1724.19 2518.19 1741.05C2517.26 1849.7 2639.73 1992.37 2694.77 2066.54L2694.89 1965.84C2748.76 2032.4 2876.83 2152.57 2830.41 2265.21C2794.92 2193.82 2740.91 2128.6 2694.97 2067.95L2694.75 2392.51C2595.2 2242.02 2520.71 2253.25 2385.55 2253.28L2206.4 2253.37L1854.99 2253.36C1826.17 2253.36 1797.27 2253.6 1768.46 2253.45C1758.94 2253.71 1755.54 2247.68 1745.51 2248.95C1697.94 2255 1675.77 2278.44 1662.93 2340.57C1661.9 2340.66 1658.17 2340.86 1657.35 2340.87C1639.08 2341.09 1600.37 2292.6 1588.02 2277.09C1563.99 2246.94 1544.71 2196.56 1539.29 2152.95C1532.93 2101.74 1534.78 2042.56 1534.79 1989.71L1534.88 1764.01L1534.91 940.488C1499.35 995.419 1473.37 1021.42 1417.63 1024.38V1804.3L1417.69 2017.03C1417.7 2083.32 1420.6 2160.53 1409.43 2224.3C1342.14 2608.61 951.09 2599.02 731.235 2527.73L731.221 2481.79C826.971 2503.99 946.098 2521.76 1032.37 2448.08C1079.24 2408.36 1083.75 2316.25 1056.52 2256.23C964.531 2053.48 818.704 1902.16 718.653 1706.49C683.136 1637.02 646.349 1540.18 636.243 1456.38C631.595 1417.85 635.649 1369.7 640.011 1331.28C689.574 1003.79 975.092 912.612 1187.98 934.169C1215.72 936.978 1240.54 943.09 1266.79 949.58L1266.82 690.48C1289.86 668.038 1392.27 560.789 1409.31 553.845C1412.71 552.461 1413.34 552.304 1416.34 554.42C1418.78 573.253 1417.7 666.095 1417.7 689.729L1417.64 988.14L1423.88 987.37C1478.91 979.91 1501.6 925.132 1534.57 870.521C1535.83 833.717 1534.86 786.481 1534.86 749.04L1534.87 517.435C1568.97 481.463 1605.3 447.95 1639.68 412.299C1651.39 400.16 1664.05 387.32 1676.38 376.449Z" fill="#0C2932"/>
<path d="M1160.48 960.952C1194.11 957.566 1233.64 965.457 1266.81 972.399L1266.83 1760.75C1266.84 1894.59 1267.24 2031.25 1266.69 2162.31C1266.11 2299.43 1215.61 2427.5 1113.95 2463.2C1107.05 2465.63 1090.97 2475.14 1085.8 2467.1C1090.61 2461.88 1101.66 2453.06 1107.24 2449.07C1177.11 2399.12 1206.89 2302.73 1206.61 2198.48C1201.8 1920.87 779.051 1615.98 777.142 1309.19C775.563 1055.48 1008.22 966.63 1160.48 960.952Z" fill="#EACB34"/>
<path d="M2693.03 1658.08C2696.32 1664.06 2694.99 1933.07 2695.03 1966.34C2681.43 1949.86 2669.25 1932.65 2656.73 1914.72C2603.97 1834.46 2598.28 1794.43 2656.38 1712.78C2668.18 1696.19 2681.37 1675.43 2693.03 1658.08Z" fill="#0C2932"/>
<path d="M598.162 2965.27C610.207 2975.15 632.018 2998.4 644.374 3010.79L731.202 3097.57L942.286 3097.68C955.523 3097.77 1023.8 3094.23 1031.52 3101.7C1033.18 3108.47 1033.16 3105.06 1030.99 3112.25C1022.99 3122.13 1005.39 3118.03 994.449 3118.01L930.585 3117.97L728.476 3117.96C715.776 3132.09 696.836 3149.91 683.279 3163.47L598.953 3247.65C556.851 3204.24 512.093 3160.78 469.464 3117.98L396.094 3117.97L223.67 3117.96C221.979 3140.75 210.713 3162.52 198.009 3177.05C171.679 3207.15 135.182 3217.31 101.426 3213.19C72.9679 3209.72 41.5477 3190.9 23.3947 3160.5C13.1495 3143.34 8.12737 3116.65 10.2563 3095.08C12.797 3069.34 24.2278 3047.78 39.242 3032.27C66.5447 3004.08 103.229 2994.75 136.875 3000.95C163.954 3005.93 200.291 3026.4 213.978 3060.5C217.974 3070.46 220.281 3086.74 225.603 3094.99C228.819 3099.98 442.778 3097.45 466.658 3097.47C509.561 3053.84 556.385 3009.92 598.162 2965.27ZM484.96 3106.56C500.386 3122.11 594.441 3219.12 600.234 3218.75C637.187 3181.86 675.315 3142.55 712.589 3106.65C699.967 3093.99 602.899 2994.19 597.2 2994.35L484.96 3106.56ZM130.2 3193.86C254.912 3162.81 205.3 3003.5 106.605 3019.16C-8.7999 3038.36 9.53363 3202.77 130.2 3193.86Z" fill="#EACB34"/>
<path d="M2373.86 2965.56C2385.02 2974.92 2407.48 2998.74 2419.04 3010.29L2506.5 3097.48C2586.87 3098.66 2668.81 3097.55 2749.31 3097.57C2759.79 3003.48 2858.55 2979.3 2913.5 3015.87C2990.54 3063.73 2974.08 3175.79 2897.23 3205.75C2836.96 3229.25 2769.09 3204.87 2748.38 3118.02L2582.94 3117.97H2504.44L2374.49 3247.71L2244.34 3117.97C2213.13 3117.96 1947.94 3119.43 1943.58 3115.91C1942.78 3107.75 1942.7 3107.76 1943.56 3099.69C1948.3 3096.04 1999.28 3097.58 2008.14 3097.58L2241.48 3097.57C2248.37 3091.68 2256.05 3083.85 2262.55 3077.08C2298.92 3039.24 2337.98 3004.06 2373.86 2965.56ZM2260.47 3106.45C2272.58 3118.59 2370.86 3219.42 2375.79 3218.65L2488.31 3106.51C2474.39 3092.59 2378.47 2994.61 2372.79 2994.16L2260.47 3106.45ZM2869.12 3194.02C2997.37 3162.65 2941.73 3001.72 2846.48 3019.22C2732.9 3035.98 2746.25 3201.33 2869.12 3194.02Z" fill="#EACB34"/>
<path d="M1538.55 2845.01L1604.51 2845.02C1596.76 2891.51 1580.78 2963.31 1570.85 3009.67C1589.66 3009.68 1639.86 3004.1 1654.32 3012.61C1660.75 3016.4 1665.24 3023.2 1667.41 3032.18C1673.37 3056.88 1662.38 3104.17 1653.56 3126.8C1650.07 3135.76 1643.8 3148.44 1636.26 3151.85C1621.77 3158.4 1557.05 3154.25 1538.42 3154.22C1491.48 3154.16 1140.62 3149.86 1130.38 3156.93C1125.94 3160 1122.86 3170.17 1121.11 3175.94C1115.85 3193.28 1112.88 3213.08 1109.15 3231.16L1088.47 3328.87H1018.58C1023.1 3314.31 1029.77 3279.39 1033.23 3262.75C1041.24 3216.36 1051.88 3136.98 1090.75 3124.61C1102.24 3028.23 1126.71 3005.68 1196.25 3014.63C1212.68 3016.74 1241.78 3014.81 1259.5 3014.86C1268.49 3022.13 1273.03 3025.85 1276.59 3039.79C1282.7 3063.65 1271.43 3107.3 1262.88 3128.45L1313.27 3128.38C1320.21 3091.66 1332.4 3020.06 1364.45 3016.27C1397 3012.41 1439.93 3014.77 1473.27 3014.85C1458.16 3051.6 1442.09 3091.12 1427.85 3128.38L1478.44 3128.37C1493.08 3063.58 1505.64 2997.08 1519.82 2932.12C1525.49 2906.15 1531.92 2869.51 1538.55 2845.01ZM1570.66 3041.38C1563.72 3054.19 1549.01 3112.46 1551.77 3126.41C1558.89 3129.87 1578.69 3129.09 1585.63 3125.44C1598.47 3106.8 1598.67 3091.15 1604.85 3068.87C1615.28 3031.22 1591.63 3040.47 1570.66 3041.38ZM1155.85 3128.33C1165.77 3128.4 1184.19 3129.68 1192.65 3125.47C1202.75 3111.93 1217.9 3061.7 1213.7 3044.2C1207.7 3038.82 1186.63 3040.7 1178.53 3041.48C1165.87 3062.28 1163.55 3100.33 1155.85 3128.33ZM1378.33 3128.23C1393.02 3128.69 1407.6 3134.68 1414.87 3115.42C1425.73 3090.39 1435.69 3066.44 1445.91 3040.92C1434.11 3040.95 1411.5 3040.13 1400.57 3041.8C1389.9 3062.16 1385.25 3101.76 1378.33 3128.23Z" fill="white"/>
<path d="M1750.38 3014.85L1825.42 3014.7C1853.24 3014.56 1900.43 3001.73 1890.78 3065.52C1886.07 3096.69 1879.22 3133.17 1859.41 3152.53C1843.71 3154.96 1828.27 3154.19 1812.48 3154.11L1720.95 3154.23C1708.27 3154.23 1682.28 3155.2 1671.03 3152.47C1669.5 3146.79 1669.43 3134.99 1669.12 3128.36H1699.47C1706.67 3083.8 1715.51 3031.34 1750.38 3014.85ZM1769.69 3128.29C1779.08 3128.39 1797.94 3129.61 1805.91 3125.49C1816.99 3113.46 1831.03 3062.21 1827.75 3044.67C1822.54 3038.45 1800.17 3041.06 1791.73 3041.31C1779.58 3067.32 1777.97 3098.66 1769.69 3128.29Z" fill="white"/>
<path d="M9.55615 2445.47C11.7056 2437.8 14.2763 2430.22 16.7234 2422.7C105.112 2452.6 198.129 2473.99 289.237 2468.04C292.206 2485.09 294.138 2494.13 298.138 2510.55C300.746 2521.26 313.898 2554.18 313.049 2559.17C306.215 2556.79 298.731 2554.78 291.79 2552.89C225.812 2534.64 160.634 2509.96 96.2003 2483.57C67.8953 2471.98 36.906 2459.95 9.55615 2445.47Z" fill="#EACB34"/>
<path d="M2050.7 3574.19C2058.62 3583.63 2065.83 3593.74 2073.25 3603.88L2018.99 3644.77C2049.39 3652.13 2079.17 3666.22 2086.56 3711.41C2092.85 3749.94 2105.46 3747.98 2131.82 3748.26C2142.18 3748.37 2153.55 3748.06 2164.28 3747.91L2164.29 3652.31L2201.56 3652.32L2201.65 3747.77C2272.98 3748.92 2283.55 3759.5 2277.25 3652.27L2314.96 3652.41C2313.55 3773.95 2321.99 3785.51 2221.58 3785.29L2167.29 3785.07C2132.76 3785.33 2106.28 3788.23 2072.74 3777.19C2048.7 3790.78 1959.79 3786.21 1931.27 3782.3C1889.15 3776.54 1869.22 3733.19 1877.61 3676.11C1890.08 3676.52 1902.11 3677.25 1914.57 3678.15C1911.77 3701.33 1912 3710.22 1918.36 3730.87C1926.36 3739.83 1935.42 3746.33 1945.85 3746.55C1963.23 3746.9 2040.29 3754.42 2050.21 3741.05C2052.24 3732.83 2051.72 3726.58 2050.62 3718.03C2045.12 3675.36 1990.48 3674.43 1966.62 3682.41L1945.39 3653.89C1980.01 3628.64 2016.72 3600.92 2050.7 3574.19Z" fill="white"/>
<path d="M1168.59 3652.26L1203.05 3652.31C1203.29 3683.73 1208.53 3749.75 1188.13 3770.17C1173.15 3785.18 1134.17 3788.42 1116.09 3784.22C1115.34 3783.05 1111.03 3776.48 1109.95 3776.83C1090.63 3783.19 1073.52 3784.56 1054 3785.6C1037.72 3786.47 1040.86 3773.72 1035.29 3776.12C1005.98 3788.72 959.722 3789.82 930.332 3776.76C824.982 3824.96 774.615 3683.86 868.332 3653.41C889.213 3651.2 895.626 3656.81 914.605 3658.17C921.45 3648.71 935.187 3652.15 945.203 3652.3C944.738 3706.24 933.408 3750.93 984.598 3748.65C1028.35 3746.7 1020.37 3713.62 1019.88 3668.08C1032.64 3668.12 1044.72 3668.12 1057.5 3667.38C1057.73 3698.16 1057.6 3717.65 1054.94 3747.87C1100.89 3749.31 1093.77 3717.81 1093.27 3668.08L1130.74 3668.27C1130.93 3698.75 1130.93 3717.62 1128.06 3747.85C1184.08 3749.64 1159.74 3700.86 1166.05 3654.51L1168.59 3652.26ZM886.608 3748.08C892.012 3747.84 900.892 3748.28 903.607 3741.73C916.678 3710.17 901.562 3685.44 877.751 3685.89C846.355 3699.38 850.66 3744.93 886.608 3748.08Z" fill="white"/>
<path d="M2591.74 3649.96C2620.9 3644.35 2657.48 3652.66 2671.05 3692.84C2683.54 3729.84 2667.17 3769.47 2639.72 3782.43C2614.62 3794.29 2591.57 3790.64 2567.66 3776.22C2528.18 3796.66 2497.76 3779.88 2461.06 3779.53C2424.03 3779.19 2418.97 3796.97 2378.18 3774.37C2318.87 3731.38 2364.34 3640.06 2420.59 3652.22C2428.77 3653.99 2437.59 3658.84 2445.56 3658.69C2452.49 3648.52 2465.84 3652.09 2476.22 3652.27C2476.47 3678.31 2470.04 3727.22 2486.52 3741.86C2496.22 3750.49 2522.4 3748.99 2535.01 3746.81C2547.91 3744.58 2540.01 3694.94 2550.14 3683.58C2561.57 3661.81 2572.73 3656.15 2591.74 3649.96ZM2615.01 3756.04C2624.08 3753.28 2631.58 3744.71 2635.07 3733.1C2638.56 3721.48 2637.61 3708.29 2632.51 3697.81C2625.93 3684.27 2613.74 3677.78 2602.07 3681.61C2586.94 3686.57 2577.6 3707.04 2581.15 3727.47C2584.71 3747.89 2599.82 3760.64 2615.01 3756.04ZM2419.91 3748.08C2424.95 3747.59 2432.43 3747.62 2434.9 3741.73C2448.72 3708.86 2431.48 3685.02 2407.53 3686.34C2400.59 3689.62 2391.79 3695.35 2389.81 3705.18C2383.11 3738.46 2402.55 3747.02 2419.91 3748.08Z" fill="white"/>
<path d="M1743.02 3585.96L1780.57 3585.92C1780.33 3635.13 1783.16 3694.43 1778.39 3742.06C1772.68 3799.04 1683.03 3789.24 1654.44 3776.64C1618.53 3793.97 1564.37 3791.87 1546.58 3737.78C1535.67 3677.96 1572.66 3650.55 1612.26 3652.01C1619.64 3652.28 1628.88 3658.72 1636.65 3658.7C1642.48 3658.69 1639.17 3654.23 1644.24 3652.7C1651.49 3651.55 1661.99 3652.18 1669.41 3652.31C1669.53 3672.57 1664.36 3722.25 1674.82 3737.26C1681.55 3746.93 1694.41 3748.52 1703.61 3748.75C1714.81 3749.02 1729.25 3748.12 1737.44 3736.36C1747.9 3721.33 1743.07 3612.36 1743.02 3585.96ZM1613.3 3748.07C1626.59 3746.74 1633.76 3740.84 1632.74 3720.06C1631.63 3697.54 1618.98 3683.84 1601.91 3685.84C1569.23 3699.76 1575.75 3747.71 1613.3 3748.07Z" fill="white"/>
<path d="M2757.08 3653.38C2774.7 3651.93 2785.09 3654.67 2802.23 3658.17C2804.29 3658.59 2805.43 3655.68 2806.97 3653.5C2811.96 3651.12 2827.67 3652.17 2833.94 3652.29C2834.15 3673.46 2829.32 3723.7 2840.48 3738.15C2852.06 3753.15 2902.83 3755.91 2908.09 3727.45C2912.01 3706.27 2910.16 3675.3 2910.06 3652.28L2947.25 3652.29C2947.44 3681.18 2949.35 3724.25 2942.83 3750.64C2932.54 3785.17 2900.28 3784.93 2876.82 3785.43C2857.21 3785.84 2837.53 3785.31 2818.87 3776.47C2783.66 3794.13 2721.54 3791.53 2709.34 3731.38C2706.47 3717.25 2708.01 3701.2 2713.89 3688.76C2724.23 3666.9 2739.45 3659.22 2757.08 3653.38ZM2775.12 3748.14C2780.93 3747.79 2789.83 3748.22 2792.61 3741C2804.78 3709.37 2789.81 3684.97 2766.06 3685.92C2734.84 3699.9 2739.22 3744.43 2775.12 3748.14Z" fill="white"/>
<path d="M420.123 3653.48C445.84 3650.01 447.103 3657.81 466.347 3658.06C472.829 3648.76 486.842 3652.12 496.558 3652.3C496.613 3674.5 492.497 3719.94 502.559 3736.62C512.752 3753.51 555.86 3753.02 566.474 3737.18C576.945 3721.55 573.242 3673.94 573.151 3652.28L610.344 3652.29C610.511 3683.36 612.476 3723.73 605.435 3752.34C593.523 3784.9 564.386 3784.85 540.835 3785.44C520.809 3785.94 500.992 3785.27 481.815 3776.82C446.398 3792.83 387.238 3792.4 372.996 3734.17C369.341 3719.23 370.858 3701.65 377.176 3688.37C387.364 3666.96 402.699 3658.96 420.123 3653.48ZM439.726 3748.1C443.501 3747.75 452.16 3747.61 454.136 3743.49C468.194 3714.17 454.972 3686.34 430.986 3685.52C397.076 3698.15 402.329 3746.76 439.726 3748.1Z" fill="white"/>
<path d="M1288.44 3653.41C1313.55 3650.19 1315.53 3657.93 1333.91 3658.03L1337.43 3653.29C1342.7 3651.12 1358.22 3652.15 1364.67 3652.29C1364.64 3667.46 1364.88 3683.19 1364.82 3698.34C1364.63 3750.46 1366.68 3776.25 1323.81 3785C1305.36 3785.45 1280.24 3786.87 1264.91 3772.93C1215.98 3728.43 1239.2 3668.44 1288.44 3653.41ZM1307.31 3747.98C1311.66 3747.68 1318.62 3748.04 1321.72 3743.56C1331.69 3729.14 1328.13 3707.08 1318.47 3694.13C1312.83 3686.57 1306.23 3686.48 1298.67 3685.54C1264.5 3697.89 1270.45 3747.57 1307.31 3747.98Z" fill="white"/>
<path d="M647.967 3585.91L684.677 3585.93L684.67 3747.78C754.264 3749.9 747.796 3741.96 746.956 3652.32L783.895 3652.31L783.874 3690.64C784.319 3772.16 770.899 3786.3 709.592 3785.27C689.955 3784.94 667.827 3785.13 647.963 3785.07L647.967 3585.91Z" fill="white"/>
<path d="M1407.59 3652.34L1445.41 3652.3C1445.2 3695.89 1447.36 3745.72 1444.52 3789.01C1442.01 3827.18 1418 3844.21 1391.42 3848.27C1380.06 3849.88 1367.39 3845.36 1356.36 3841.8L1368.68 3810.79C1373.4 3811.56 1378.14 3812.29 1382.9 3812.43C1390.35 3812.64 1396.53 3810.24 1401.74 3802.71C1412.57 3787.03 1407.67 3677.13 1407.59 3652.34Z" fill="white"/>
<path d="M2192.46 3583.4C2199.86 3583.33 2207.05 3582.62 2214.43 3581.99L2207.32 3598.92C2202.05 3611.64 2197.13 3624.67 2192.17 3637.61L2169.76 3637.58C2163.47 3624.34 2153.24 3596.56 2148.04 3582.46L2169.02 3583.5L2180.61 3613.93L2192.46 3583.4Z" fill="white"/>
<path d="M1363.81 3858.94L1384.91 3858.83C1388.73 3869.03 1392.47 3879.85 1396.18 3890.19L1407.89 3858.79L1429.35 3858.82L1420.77 3879.88L1408.07 3912.75H1384.67C1378.66 3895.21 1370.65 3876.13 1363.81 3858.94Z" fill="white"/>
<path d="M2890.31 3594.38C2911.74 3596.02 2920.19 3617.41 2897.45 3632.23C2872.29 3631 2864.54 3605.62 2890.31 3594.38Z" fill="white"/>
<path d="M279.032 3594.32C300.759 3596.15 308.664 3620.01 284.974 3632.44C260.724 3631.21 253.541 3604.59 279.032 3594.32Z" fill="white"/>
<path d="M2933.78 3594.45C2957.27 3596.45 2963.65 3621.56 2939.18 3632.57C2915.87 3628.95 2909.05 3605.13 2933.78 3594.45Z" fill="white"/>
<path d="M2291.39 3594.51C2313.27 3593.64 2325.57 3615.91 2301.64 3631.75C2279.23 3631.5 2267.41 3609.56 2291.39 3594.51Z" fill="white"/>
<path d="M322.166 3594.3C344.269 3595.36 352.992 3619.97 328.026 3632.69C304.463 3628.75 297.635 3605.86 322.166 3594.3Z" fill="white"/>
<path d="M526.45 3808.68C547.751 3806.83 561.911 3827.89 538.474 3845.08C516.743 3846.56 502.702 3824.93 526.45 3808.68Z" fill="white"/>
<path d="M570.132 3808.63C591.432 3806.99 606.021 3828.06 582.27 3845.16C561.134 3846.43 546.446 3825.84 570.132 3808.63Z" fill="white"/>
<path d="M2157.58 3808.86C2179.49 3809.17 2191 3832.02 2166.67 3845.56C2143.99 3846.41 2132.75 3822.18 2157.58 3808.86Z" fill="white"/>
<path d="M760.42 3594.35C781.14 3593.75 794.431 3615.84 771.008 3631.33C748.9 3632.73 735.974 3610.8 760.42 3594.35Z" fill="white"/>
<path d="M2201.11 3808.8C2223.64 3809.16 2234.28 3833.17 2210.44 3845.62C2188.07 3846.3 2177 3823.53 2201.11 3808.8Z" fill="white"/>
<path d="M298.5 3652.3L335.849 3652.27C335.99 3679.78 339.688 3745.95 324.73 3764.92C302.383 3793.25 219.019 3794.46 194.942 3764.95C186.181 3754.21 185.007 3725.3 183.847 3709.23C177.287 3709.02 164.984 3706.55 159.798 3712.97C140.906 3736.37 181.479 3825.2 97.9029 3836.8C75.3235 3839.93 40.0129 3838.73 22.0341 3817.69C10.1395 3803.78 4.95732 3784.23 1.42827 3764.27C0.958078 3761.62 1.07397 3762.44 0 3759.27V3729.29C3.5674 3716.23 2.6112 3701.72 10.5561 3693.35C17.4772 3692.53 34.1029 3696.06 42.7516 3696.89C39.2202 3723.22 33.27 3757.32 45.0294 3781.43C57.783 3807.57 88.4025 3804.14 107.16 3792.9L108.242 3791.12C136.462 3743.96 92.0837 3680.56 154.296 3672.95C176.597 3670.22 200.239 3672.06 222.541 3674.33C221.936 3729.74 215.912 3749.32 266.457 3748.57C309.864 3747.94 298.2 3697.09 298.5 3652.3Z" fill="white"/>
</svg>
