<svg width="1213" height="1213" viewBox="0 0 1213 1213" fill="none" xmlns="http://www.w3.org/2000/svg">
<rect width="1213" height="1213" rx="340" fill="white"/>
<path d="M606.829 217C618.804 217 630.927 217.626 643.105 218.889C654.156 220.036 662.23 229.576 662.23 240.686V445.68C662.23 486.495 644.394 495.912 623.512 512.344C597.6 532.752 581.923 549.767 582.172 615.247V733.187C582.17 768.789 634.243 770.026 634.243 733.593V610.087C634.243 602.172 640.655 595.793 648.554 595.793H652.38C660.28 595.793 666.71 602.172 666.71 610.087V734.159C666.71 754.513 680.436 760.591 693.596 760.591C706.757 760.591 720.483 754.513 720.483 734.159V610.087C720.483 602.172 726.913 595.793 734.812 595.793H738.639C746.538 595.793 752.949 602.172 752.949 610.087V733.593C752.95 770.026 805.024 768.789 805.024 733.187V615.247C805.272 549.767 789.578 532.752 763.683 512.344C742.801 495.912 724.965 486.495 724.965 445.68V269.066C724.965 253.501 740.348 242.633 754.507 249.098C837.867 287.16 909.347 359.927 934.801 471.927C979.317 668.258 859.085 834.151 750.269 938.785C710.319 977.595 658.574 997 606.829 997C585.283 997 563.737 993.635 543.015 986.906V500.248C543.015 454.359 483.674 441.693 462.808 500.247C449.408 537.874 410.828 626.026 408.386 703.885C404.608 824.74 478.579 806.864 479.898 886.042V931.058C479.898 940.156 469.564 945.094 463.007 938.785V938.785C354.191 834.151 233.96 667.878 278.476 471.546C318.426 295.761 472.139 217 606.449 217H606.829Z" fill="#FDBB2A"/>
</svg>
