<svg width="1213" height="1213" viewBox="0 0 1213 1213" fill="none" xmlns="http://www.w3.org/2000/svg">
<rect width="1213" height="1213" rx="340" fill="white"/>
<path d="M606.828 217C625.063 217 643.639 218.451 662.229 221.395V445.68C662.229 486.495 644.394 495.912 623.511 512.344C597.599 532.752 581.923 549.767 582.171 615.247V733.187C582.17 768.789 634.243 770.026 634.243 733.593V610.087C634.243 602.172 640.654 595.793 648.554 595.793H652.379C660.279 595.793 666.709 602.172 666.709 610.087V734.159C666.71 754.513 680.435 760.591 693.596 760.591C706.757 760.591 720.482 754.513 720.483 734.159V610.087C720.483 602.172 726.912 595.793 734.812 595.793H738.638C746.538 595.793 752.949 602.172 752.949 610.087V733.593C752.949 770.026 805.023 768.789 805.023 733.187V615.247C805.271 549.767 789.578 532.752 763.683 512.344C742.8 495.912 724.965 486.495 724.965 445.68V237.209C820.6 270.75 906.384 346.889 934.801 471.927C979.316 668.258 859.085 834.151 750.268 938.785C710.318 977.595 658.573 997 606.828 997C585.283 997 563.737 993.635 543.015 986.906V500.248C543.014 454.359 483.674 441.693 462.808 500.247C449.407 537.874 410.828 626.026 408.386 703.885C404.608 824.74 478.579 806.864 479.897 886.042V953.41C474.079 948.887 468.439 944.012 463.007 938.785C354.19 834.151 233.96 667.878 278.475 471.546C318.426 295.761 472.139 217 606.448 217H606.828Z" fill="url(#paint0_linear_3329_1429)"/>
<defs>
<linearGradient id="paint0_linear_3329_1429" x1="912.623" y1="688.106" x2="279.892" y2="598.187" gradientUnits="userSpaceOnUse">
<stop stop-color="#B58D45"/>
<stop offset="1" stop-color="#DEBB73"/>
</linearGradient>
</defs>
</svg>
