<svg width="1213" height="1213" viewBox="0 0 1213 1213" fill="none" xmlns="http://www.w3.org/2000/svg">
<rect width="1213" height="1213" rx="350" fill="url(#paint0_linear_3329_1431)"/>
<path d="M606.828 217C618.804 217 630.927 217.626 643.104 218.889C654.155 220.036 662.229 229.576 662.229 240.686V445.68C662.229 486.495 644.394 495.912 623.511 512.344C597.599 532.752 581.923 549.767 582.171 615.247V733.187C582.17 768.789 634.243 770.026 634.243 733.593V610.087C634.243 602.172 640.654 595.793 648.554 595.793H652.379C660.279 595.793 666.709 602.172 666.709 610.087V734.159C666.709 754.513 680.435 760.591 693.596 760.591C706.756 760.591 720.482 754.513 720.483 734.159V610.087C720.483 602.172 726.912 595.793 734.812 595.793H738.638C746.538 595.793 752.949 602.172 752.949 610.087V733.593C752.949 770.026 805.023 768.789 805.023 733.187V615.247C805.271 549.767 789.578 532.752 763.683 512.344C742.8 495.912 724.965 486.495 724.965 445.68V269.066C724.965 253.501 740.347 242.633 754.506 249.098C837.866 287.16 909.347 359.927 934.8 471.927C979.316 668.258 859.085 834.151 750.268 938.785C710.318 977.595 658.573 997 606.828 997C585.282 997 563.737 993.635 543.015 986.906V500.248C543.014 454.359 483.674 441.693 462.808 500.247C449.407 537.874 410.828 626.026 408.386 703.885C404.608 824.74 478.579 806.864 479.897 886.042V931.058C479.897 940.156 469.563 945.094 463.007 938.785V938.785C354.19 834.151 233.96 667.878 278.475 471.546C318.426 295.761 472.139 217 606.448 217H606.828Z" fill="white"/>
<defs>
<linearGradient id="paint0_linear_3329_1431" x1="1156.08" y1="732.63" x2="27.0905" y2="547.324" gradientUnits="userSpaceOnUse">
<stop stop-color="#B58D45"/>
<stop offset="1" stop-color="#DEBB73"/>
</linearGradient>
</defs>
</svg>
